# xmcd CD database file
#
# Track frame offsets:
#	150
#	18497
#	31880
#	48437
#	64380
#	78745
#	92630
#	106257
#	121942
#	137207
#	149675
#	163122
#	179575
#
# Disc length: 2617 seconds
#
# Revision: 1
# Processed by: cddbd v1.4PL0 Copyright (c) Steve Scherf et al.
# Submitted via: CDValet v3.40 - Copyright (c) 1996 - 1998 Greg Leichner
#
DISCID=bc0a370d
DTITLE=Campbell, Kate - Twang On A Wire
DYEAR=1900
DGENRE=
TTITLE0=Rose Garden
TTITLE1=Mississippi Woman, Louisiana Man
TTITLE2=Would You Lay With Me In A Field Of Stone
TTITLE3=Down From Dover
TTITLE4=Funny Face
TTITLE5=Til I Can Make It On My Own
TTITLE6=Honey On His Hands
TTITLE7=Boulder To Birmingham
TTITLE8=Harper Valley PTA
TTITLE9=Satin Sheets
TTITLE10=Help Me Make It Through The Night
TTITLE11=Touch Your Woman
TTITLE12=Twang On A Wire
EXTD=
EXTT0=
EXTT1=
EXTT2=
EXTT3=
EXTT4=
EXTT5=
EXTT6=
EXTT7=
EXTT8=
EXTT9=
EXTT10=
EXTT11=
EXTT12=
PLAYORDER=
